{"title":"Churanga (201) 720p Webrip x264 AC3 5.1 ESub -DDR","uid":15787946,"size":1452469005,"categoryP":"video","categoryS":"hd___movies","magnet":"?xt=urn:btih:dbdbcfb53379e8602fc796576ea84129f955fad8&amp;dn=Churanga+%28201%29+720p+Webrip+x264+AC3+5.1+ESub+-DDR&amp;tr=udp%3A%2F%2Ftracker.leechers-paradise.org%3A6969&amp;tr=udp%3A%2F%2Fzer0day.ch%3A1337&amp;tr=udp%3A%2F%2Fopen.demonii.com%3A1337&amp;tr=udp%3A%2F%2Ftracker.coppersurfer.tk%3A6969&amp;tr=udp%3A%2F%2Fexodus.desync.com%3A6969","seeders":25,"leechers":17,"uploader":"SaM","files":3,"time":1473348006,"description":"\nChauranga\r\n\r\n720p Web Rip x264\r\n\r\nHindi AC3 5.1 Audio\r\n\r\n\r\n\r\nEnglish Subtitle\r\n \nhttp://extraimago.com/image/wmQR \nhttp://extraimago.com/image/wmQQ \nhttp://extraimago.com/image/wmQL \nhttp://extraimago.com/image/wmQy \nhttp://extraimago.com/image/wmQq \nhttp://extraimago.com/image/wmQS \nhttp://extraimago.com/image/wmQO \nhttp://extraimago.com/image/wmQE \nhttp://extraimago.com/image/wmQ1\r\n\r\nSpecs:\r\nSource: Netflix Rip@ DDR\r\n\r\nFormat : Matroska\r\nFile size : 1.34 GiB\r\nDuration : 1 h 26 min\r\nOverall bit rate : 2 222 kb/s\r\n\r\nVideo\r\nID : 1\r\nFormat : AVC\r\nFormat/Info : Advanced Video Codec\r\nFormat profile :   \r\nFormat settings, CABAC : Yes\r\nFormat settings, ReFrames : 12 frames\r\nCodec ID : V_MPEG4/ISO/AVC\r\nDuration : 1 h 26 min\r\nBit rate : 1 581 kb/s\r\nWidth : 1 280 pixels\r\nHeight : 544 pixels\r\nDisplay aspect ratio : 2.35:1\r\nFrame rate mode : Constant\r\nFrame rate : 24.000 FPS\r\nColor space : YUV\r\nChroma subsampling : 4:2:0\r\nBit depth : 8 bits\r\nScan type : Progressive\r\nBits/(Pixel*Frame) : 0.095\r\nStream size : 973 MiB (71%)\r\nLanguage : English\r\nDefault : Yes\r\nForced : No\r\nColor range : Limited\r\nColor primaries : BT.709\r\nTransfer characteristics : BT.709\r\nMatrix coefficients : BT.709\r\n\r\nAudio\r\nID : 2\r\nFormat : AC-3\r\nFormat/Info : Audio Coding 3\r\nMode extension : CM (complete main)\r\nFormat settings, Endianness : Big\r\nCodec ID : A_AC3\r\nDuration : 1 h 26 min\r\nBit rate mode : Constant\r\nBit rate : 640 kb/s\r\nChannel(s) : 6 channels\r\nChannel positions : Front: L C R, Side: L R, LFE\r\nSampling rate : 48.0 kHz\r\nFrame rate : 31.250 FPS (1536 spf)\r\nCompression mode : Lossy\r\nDelay relative to video : 30 ms\r\nStream size : 394 MiB (29%)\r\nLanguage : Hindi\r\nDefault : Yes\r\nForced : No\r\n\r\nText\r\nID : 3\r\nFormat : UTF-8\r\nCodec ID : S_TEXT/UTF8\r\nCodec ID/Info : UTF-8 Plain Text\r\nDuration : 1 h 18 min\r\nBit rate : 21 b/s\r\nCount of elements : 517\r\nStream size : 12.3 KiB (0%)\r\nLanguage : English\r\nDefault : Yes\r\nForced : No\r\n\r\nSAMPLE Included","torrent":{"xt":"urn:btih:dbdbcfb53379e8602fc796576ea84129f955fad8","amp;dn":"Churanga+%28201%29+720p+Webrip+x264+AC3+5.1+ESub+-DDR","amp;tr":["udp%3A%2F%2Ftracker.leechers-paradise.org%3A6969","udp%3A%2F%2Fzer0day.ch%3A1337","udp%3A%2F%2Fopen.demonii.com%3A1337","udp%3A%2F%2Ftracker.coppersurfer.tk%3A6969","udp%3A%2F%2Fexodus.desync.com%3A6969"],"infoHash":"dbdbcfb53379e8602fc796576ea84129f955fad8","infoHashBuffer":{"type":"Buffer","data":[219,219,207,181,51,121,232,96,47,199,150,87,110,168,65,41,249,85,250,216]},"announce":[],"urlList":[]}}